<svg width="83" height="32" viewBox="0 0 83 32" fill="none" xmlns="http://www.w3.org/2000/svg"><path d="M52.77 10.736a2.437 2.437 0 0 0 0 3.556l3.605 3.445c.233.248 1.21 1.402.852 2.963a.237.237 0 0 0 .063.23.256.256 0 0 0 .35 0l2.367-2.262a3.13 3.13 0 0 0 0-4.573l-3.514-3.36a2.721 2.721 0 0 0-3.722 0zm22.46 20.527a2.435 2.435 0 0 0 0-3.555l-3.607-3.445c-.232-.248-1.21-1.402-.851-2.964a.237.237 0 0 0-.063-.23.258.258 0 0 0-.35 0l-2.367 2.263a3.131 3.131 0 0 0 0 4.573l3.515 3.358a2.72 2.72 0 0 0 3.722 0zm-21.434-3.718L72.353 9.76A2.78 2.78 0 0 1 74.311 9c.69.008 1.373.261 1.895.762.528.506.793 1.174.794 1.842a2.55 2.55 0 0 1-.796 1.85L57.647 31.24a2.773 2.773 0 0 1-1.926.761 2.776 2.776 0 0 1-1.926-.762A2.558 2.558 0 0 1 53 29.44a2.553 2.553 0 0 1 .796-1.895zM4.188 13.565H2.294C1.027 13.565 0 12.582 0 11.369c0-1.212 1.027-2.195 2.294-2.195h1.894V7.521c0-2.565.682-4.477 1.955-5.695C7.414.61 9.186 0 11.548 0c.989 0 1.82.07 2.563.186C15.205.358 16 1.276 16 2.338c-.001 1.277-1.14 2.282-2.472 2.171a9.327 9.327 0 0 0-.754-.031c-2.089 0-3.18 1.087-3.18 3.479v1.26h4.088c1.254 0 2.271.974 2.271 2.175 0 1.2-1.017 2.173-2.271 2.173H9.685V29.37c0 1.452-1.23 2.63-2.747 2.63-1.52 0-2.75-1.178-2.75-2.63V13.565zM21.5 1C22.88 1 24 2.15 24 3.569V29.43c0 1.419-1.12 2.57-2.5 2.57-1.381 0-2.5-1.15-2.5-2.57V3.57C19 2.15 20.119 1 21.5 1z" fill="#DFE1EF"/><path fill-rule="evenodd" clip-rule="evenodd" d="M29 19.743v.315C29 27.162 34.08 32 40.668 32c3.166 0 5.639-.977 7.588-2.589.995-.823.994-2.37.033-3.234-.76-.682-1.878-.702-2.696-.091-1.405 1.046-2.911 1.6-4.84 1.6-3.275 0-5.857-1.993-6.5-5.571a.23.23 0 0 1 .224-.27h15.059c.808 0 1.464-.663 1.464-1.482 0-5.894-2.897-11.097-8.63-12.174C35.384 6.88 29 12.55 29 19.743zm16.805-1.64a.228.228 0 0 1-.225.255H34.428a.231.231 0 0 1-.224-.264c.549-3.432 2.755-5.794 5.86-5.794 3.358 0 5.325 2.526 5.74 5.802zm34.401 10.64c-.138.23-.206.482-.206.757 0 .27.067.52.203.75a1.496 1.496 0 0 0 1.301.75c.28 0 .534-.07.762-.207a1.514 1.514 0 0 0 .532-2.045A1.507 1.507 0 0 0 81.504 28c-.266 0-.516.067-.747.199a1.5 1.5 0 0 0-.551.544zm2.578.757c0-.233-.056-.45-.171-.648a1.29 1.29 0 0 0-.465-.475 1.25 1.25 0 0 0-.652-.177 1.284 1.284 0 0 0-1.107.648 1.274 1.274 0 0 0-.174.652 1.311 1.311 0 0 0 .637 1.124c.196.116.412.175.648.175.234 0 .451-.059.648-.175.196-.119.352-.276.465-.476.115-.199.171-.415.171-.648zm-.88.307c.027.063.04.155.04.277 0 .06.004.118.014.172a.286.286 0 0 0 .037.115h.217c-.038-.06-.056-.17-.056-.333 0-.16-.022-.273-.065-.342a.377.377 0 0 0-.222-.15v-.007a.413.413 0 0 0 .237-.146.425.425 0 0 0 .081-.27c0-.153-.052-.269-.157-.348a.674.674 0 0 0-.42-.12h-.75v1.716h.216v-.726h.428a.78.78 0 0 1 .268.035.222.222 0 0 1 .132.127zm-.342-.952c.272 0 .409.093.409.279 0 .106-.038.184-.112.236a.54.54 0 0 1-.316.078h-.467v-.593h.486z" fill="#DFE1EF"/></svg>