<svg width="82" height="34" viewBox="0 0 82 34" fill="none" xmlns="http://www.w3.org/2000/svg"><path d="M23.83 26.091c-1.393 1.875-3.218 3.832-5.614 5.3C15.904 32.859 13.257 34 10.11 34c-2.897 0-5.293-1.468-6.616-2.69-1.978-1.876-3.05-4.567-3.385-7.094-.906-7.828 3.97-18.1 11.492-22.667A10.488 10.488 0 0 1 17.06 0c3.636 0 6.366 2.528 6.7 5.626.32 2.772-.752 5.137-3.886 6.686-1.574.815-2.41.734-2.647.407-.167-.244-.083-.652.237-.896 2.898-2.365 2.981-4.322 2.647-7.094-.237-1.794-1.407-2.935-2.73-2.935-5.698 0-13.972 12.638-12.816 21.77.418 3.587 2.647 7.745 7.285 7.745 1.491 0 3.135-.407 4.542-1.141 3.231-1.63 4.638-2.772 6.532-5.381.251-.327.502-.734.753-1.06.153-.327.487-.408.738-.408.25 0 .585.245.585.652 0 .245-.084.734-.418 1.142-.167.163-.501.652-.752.978z" fill="#DFE1EF"/><path d="M32.89 31c-1.419 0-2.262-.776-2.585-1.983C29.378 30.31 28.044 31 26.71 31c-2.247 0-4.326-1.983-4.664-4.569C21.54 21.862 25.305 16 30.965 16c2.417 0 4.426 1.035 4.679 3.017.323 2.5-1.756 3.018-2.501 3.018-.674 0-1.756-.173-1.84-.863-.085-.69 1.419-.258 1.25-1.896-.084-1.035-1.082-1.38-2.079-1.38-3.512 0-5.422 5-5.015 8.104.169 1.38.843 2.759 2.093 2.759.997 0 2.5-1.466 3.006-3.707.323-1.466 1.742-2.5 2.74-2.5.505 0 .927.258 1.011.776 0 .172 0 .43-.084.776-.085.69-.59 2.758-.59 3.275 0 .431.253.949.913.949.758 0 4.172-2.07 6.096-4.828.169-.259.492-.431.745-.431s.59.172.59.517c.084.345-.084.776-.506 1.38C39.31 28.24 34.548 31 32.89 31zm46.87-1.96c.172 1.346.845 2.218 1.446 2.693.257.158.343.396.343.554.086.396-.257.713-.772.713-.172 0-.33 0-.501-.08-2.546-.95-3.576-2.534-3.905-4.039-.945 1.11-2.304 1.822-3.577 1.822-2.289 0-4.406-1.822-4.75-4.198C67.53 22.386 71.522 17 77.215 17c2.375 0 4.507.871 4.75 2.693.343 2.297-1.86 2.772-2.546 2.772-.759 0-1.86-.158-1.946-.792-.086-.554 1.53-.237 1.359-1.663-.086-.95-1.187-1.268-2.132-1.268-3.304 0-5.507 4.04-5.092 7.367.171 1.346.858 2.614 2.131 2.614 1.016 0 2.547-1.347 3.133-3.406.344-1.347 1.788-2.297 2.804-2.297.515 0 .93.237 1.016.792 0 .237-.086.871-.587 3.01-.429.792-.429 1.584-.343 2.218z" fill="#DFE1EF"/><path d="M49.417 28.558c.749 0 3.215-.895 5.183-3.581.25-.244.5-.407.735-.407.332 0 .582.163.665.488 0 .244-.166.733-.582 1.302-2.217 3.093-6 4.64-7.65 4.64-1.718 0-2.633-1.058-2.785-2.605a4.69 4.69 0 0 1 .069-1.79c.582-3.5 1.898-5.617 1.815-6.268 0-.163-.166-.244-.25-.244-1.066 0-4.933 3.907-5.501 6.512l-.499 2.035c-.332 1.465-1.732 2.36-2.716 2.36-.5 0-.818-.244-.901-.733 0-.162 0-.407.083-.732 0 0 1.885-9.605 1.968-10.093.25-1.14.665-2.28 2.966-2.28.485 0 .817.245.9.815 0 .163 0 .407-.083.732l-.65 2.93c2.05-2.686 5.182-4.639 7.15-4.639.832 0 1.4.407 1.566 1.302.083.489-.083 1.303-.416 2.198-.651 1.872-1.4 4.558-1.968 6.919-.166.325 0 1.14.901 1.14z" fill="#DFE1EF"/><path fill-rule="evenodd" clip-rule="evenodd" d="M65.832 24.38c1.714 0 3.855-1.226 5.002-3.106.083-.245.166-.49.166-.654 0-.245-.083-.408-.332-.408-.331 0-.663.326-1.064.735-.497.572-1.478 1.144-2.708 1.144-.165 0-.497-.081-.497-.081.829-1.553 1.395-3.188 1.395-4.577 0-2.289-1.395-3.433-2.956-3.433-1.962 0-4.007 1.716-4.007 5.15 0 2.042.815 3.677 2.21 4.576-1.644 2.615-3.854 4.822-4.186 4.822-.114 0-.15-.117-.188-.243a1.128 1.128 0 0 0-.06-.166c-.236-.898-.484-2.697-.484-3.76 0-1.96.317-3.922 1.064-5.966.082-.245.165-.49.165-.653 0-.572-.414-.818-.912-.818-.98 0-2.542 1.145-2.943 2.37-.331 1.145-.497 2.78-.497 4.74 0 2.698.332 5.232 1.064 6.54.166.326.58.408.995.408.483 0 1.147-.163 1.879-.572 1.727-.9 3.938-3.024 6.066-6.13.331.082.58.082.828.082zm-1.478-3.433c-.83-.899-1.478-2.288-1.478-3.596 0-.735.248-1.553.815-1.553.497 0 1.147.736 1.147 2.452 0 .9-.152 1.798-.484 2.697z" fill="#DFE1EF"/></svg>