<svg width="136" height="32" viewBox="0 0 136 32" fill="none" xmlns="http://www.w3.org/2000/svg"><path d="M28.015 18.442c2.76 0 6.754-.573 6.754-3.88a3.125 3.125 0 0 0-.069-.76l-1.643-7.19c-.379-1.583-.712-2.301-3.47-3.69C27.445 1.82 22.784 0 21.404 0c-1.284 0-1.656 1.667-3.187 1.667-1.474 0-2.57-1.245-3.948-1.245-1.324 0-2.187.91-2.854 2.778 0 0-1.854 5.271-2.093 6.036a1.45 1.45 0 0 0-.049.43c0 2.05 8.01 8.767 18.742 8.767" fill="#DFE1EF"/><path d="M35.193 15.905c.382 1.82.382 2.01.382 2.25 0 3.112-3.473 4.838-8.039 4.838C17.219 23 8.181 16.912 8.181 12.888c0-.56.113-1.115.333-1.63-3.71.188-8.514.854-8.514 5.125C0 23.378 16.458 32 29.49 32 39.48 32 42 27.45 42 23.856c0-2.827-2.427-6.036-6.803-7.952m93.546 5.188c0 2.579 1.591 3.832 4.495 3.832a11.871 11.871 0 0 0 2.646-.364v-2.991a5.66 5.66 0 0 1-1.709.252c-1.196 0-1.639-.365-1.639-1.46v-4.583H136v-3.08h-3.464V8.794l-3.784.798v3.106h-2.513v3.08h2.504v5.314z" fill="#DFE1EF"/><path fill-rule="evenodd" clip-rule="evenodd" d="M121.522 24.035c-1.006.661-2.083.935-3.419.935l-.005.006c-2.762 0-4.494-1.618-4.494-3.74 0-2.326 1.919-3.628 5.105-3.628.948-.004 1.891.111 2.809.343v-.592c0-1.21-.806-1.803-2.364-1.803-1.076 0-2.295.365-3.747.96l-1.358-2.716c2.017-.89 3.892-1.323 5.789-1.323 3.394 0 5.429 1.613 5.429 4.554v7.735h-3.745v-.731zm-2.515-4.06c-1.24 0-2.062.388-2.062 1.186 0 .753.728 1.208 1.943 1.208a4.888 4.888 0 0 0 2.367-.57v-1.551a9.853 9.853 0 0 0-2.248-.273z" fill="#DFE1EF"/><path d="M97.522 24.772h4.025v-6.257h6.744v6.25h4.038V8.799h-4.023v6.136h-6.742V8.798h-4.027l-.016 15.974z" fill="#DFE1EF"/><path fill-rule="evenodd" clip-rule="evenodd" d="M91.863 24.774h-3.747l.01-.898a5.696 5.696 0 0 1-3.325 1.048 6.425 6.425 0 0 1-2.434-.464 6.303 6.303 0 0 1-2.062-1.346 6.116 6.116 0 0 1-1.366-2.017 5.987 5.987 0 0 1-.459-2.376c0-3.468 2.833-6.181 6.437-6.181a6.426 6.426 0 0 1 3.16.798v-4.54L91.864 8v16.774zm-6.416-9.111c-1.85 0-3.254 1.323-3.254 3.058v.009c0 1.733 1.429 3.056 3.254 3.056a3.71 3.71 0 0 0 2.618-.968V16.6a3.897 3.897 0 0 0-2.618-.937zM71.283 25c-3.791 0-6.74-2.737-6.74-6.25l.004-.007a6.057 6.057 0 0 1 .478-2.41 6.184 6.184 0 0 1 1.399-2.04 6.388 6.388 0 0 1 2.103-1.35 6.507 6.507 0 0 1 2.476-.449c3.605 0 6.25 2.759 6.25 6.591v.918h-8.826a3.14 3.14 0 0 0 1.218 1.418c.543.341 1.18.515 1.828.497 1.028 0 1.893-.319 2.478-.913l2.508 2.169C74.889 24.45 73.366 25 71.283 25zm2.24-7.589c-.4-1.163-1.405-1.915-2.598-1.915-1.255 0-2.192.716-2.567 1.915h5.164zm-19.496 7.355H50V8.798h8.388c3.47 0 5.787 2.213 5.787 5.086a4.735 4.735 0 0 1-.839 2.708 4.932 4.932 0 0 1-2.251 1.787l3.607 6.387h-4.509l-3.091-5.817h-3.065v5.817zm6.07-10.812c0-.983-.747-1.803-2.083-1.803H54.03v3.605h3.983c1.336 0 2.083-.82 2.083-1.802z" fill="#DFE1EF"/></svg>