<svg width="136" height="20" viewBox="0 0 136 20" fill="none" xmlns="http://www.w3.org/2000/svg"><path fill-rule="evenodd" clip-rule="evenodd" d="M32.725 6.162a5.836 5.836 0 0 0-3.755 1.36V6.3h-3.412v13.416h3.55V11.14c.383-.5.877-.91 1.438-1.197a4.136 4.136 0 0 1 1.796-.464 3.6 3.6 0 0 1 1.425.215v-3.44a6.046 6.046 0 0 0-1.042-.092zM1.727 15.623a5.542 5.542 0 0 0 3.631 1.327c.96 0 1.686-.47 1.686-1.134 0-2.02-6.427-1.3-6.427-5.616 0-2.572 2.466-4.176 5.098-4.176a8.151 8.151 0 0 1 4.48 1.36L8.539 9.979a4.483 4.483 0 0 0-2.55-.912c-.986 0-1.808.387-1.808 1.078 0 1.742 6.427 1.051 6.427 5.698 0 2.573-2.48 4.15-5.276 4.15A9.106 9.106 0 0 1 0 18.2l1.727-2.577zm22.31-2.74c0-3.734-2.59-6.86-6.263-6.86-3.933 0-6.454 3.264-6.454 7-.042.928.11 1.854.452 2.72a6.72 6.72 0 0 0 1.494 2.307 6.675 6.675 0 0 0 2.302 1.502 6.6 6.6 0 0 0 2.7.44 7.181 7.181 0 0 0 2.987-.609 7.222 7.222 0 0 0 2.453-1.796l-2.014-2.047a4.712 4.712 0 0 1-1.521 1.117 4.602 4.602 0 0 1-1.823.432 3.439 3.439 0 0 1-2.412-.874 3.485 3.485 0 0 1-1.165-2.304h9.182a6.43 6.43 0 0 0 .082-1.028zm-9.113-1.603a2.97 2.97 0 0 1 1.014-1.693 2.826 2.826 0 0 1 1.836-.658c.644 0 1.275.24 1.754.674.494.433.795 1.03.878 1.677h-5.482zm27.312 3.208L45.881 6.3h3.687l-6.099 13.416h-2.453L34.918 6.3h3.686l3.632 8.188zM52.555 0a2.277 2.277 0 0 1 2.083 1.45c.165.42.206.882.11 1.325a2.17 2.17 0 0 1-.63 1.168 2.261 2.261 0 0 1-3.495-.367 2.226 2.226 0 0 1-.384-1.275c0-.305.055-.608.178-.89.11-.282.288-.537.508-.752.205-.214.465-.382.753-.496.274-.113.576-.168.877-.163z" fill="#DFE1EF"/><path d="M54.337 6.3h-3.55v13.416h3.55V6.3z" fill="#DFE1EF"/><path fill-rule="evenodd" clip-rule="evenodd" d="M69.042 16.977a7.006 7.006 0 0 1-6.03 3.015 6.867 6.867 0 0 1-2.7-.48 6.892 6.892 0 0 1-2.316-1.506 7.029 7.029 0 0 1-1.548-2.293 7.118 7.118 0 0 1-.549-2.719 7.117 7.117 0 0 1 .562-2.716 6.999 6.999 0 0 1 1.549-2.287 6.991 6.991 0 0 1 2.316-1.496 6.917 6.917 0 0 1 2.713-.471 7.092 7.092 0 0 1 5.591 2.683l-2.521 2.24a3.876 3.876 0 0 0-1.343-1.168 3.84 3.84 0 0 0-1.727-.436 3.55 3.55 0 0 0-1.384.277 3.702 3.702 0 0 0-1.178.8c-.33.344-.59.75-.768 1.198-.164.447-.26.924-.247 1.404a3.535 3.535 0 0 0 1.042 2.632 3.487 3.487 0 0 0 2.631 1.019 3.819 3.819 0 0 0 1.795-.49 3.799 3.799 0 0 0 1.37-1.28l2.742 2.074zm12.908.609a7.224 7.224 0 0 1-2.452 1.797 7.184 7.184 0 0 1-2.988.608 6.607 6.607 0 0 1-2.7-.441 6.677 6.677 0 0 1-2.302-1.502 6.718 6.718 0 0 1-1.493-2.307 6.591 6.591 0 0 1-.453-2.72c0-3.735 2.522-6.998 6.455-6.998 3.673 0 6.263 3.125 6.263 6.86 0 .342-.028.685-.082 1.023h-9.182c.082.89.493 1.714 1.165 2.305a3.44 3.44 0 0 0 2.412.876 4.715 4.715 0 0 0 3.344-1.549l2.014 2.048zm-3.302-6.306a2.662 2.662 0 0 0-.877-1.678 2.633 2.633 0 0 0-1.754-.674 2.85 2.85 0 0 0-1.836.659 2.877 2.877 0 0 0-1 1.693h5.467zm5.043 8.436V6.3h3.426v1.08a5.826 5.826 0 0 1 3.742-1.355 6.005 6.005 0 0 1 4.605 2.158 6.814 6.814 0 0 1 1.356 4.707v6.827h-3.55v-7.112c.055-.452 0-.91-.136-1.344a3.229 3.229 0 0 0-.658-1.174 2.775 2.775 0 0 0-2.001-.746 4.204 4.204 0 0 0-3.22 1.66v8.716H83.69zm22.297-13.692a7.787 7.787 0 0 0-4.385 1.346 7.833 7.833 0 0 0-2.864 3.592 7.865 7.865 0 0 0-.37 4.596 7.771 7.771 0 0 0 2.247 4.012c.274.255.617.406.987.425.37.02.726-.094 1.014-.32a5.54 5.54 0 0 1 6.646 0c.288.226.658.339 1.014.317a1.53 1.53 0 0 0 .987-.436 7.929 7.929 0 0 0 2.248-3.99 8.008 8.008 0 0 0-.357-4.571 7.825 7.825 0 0 0-2.836-3.59 7.717 7.717 0 0 0-4.331-1.383m-.055 11.76a3.746 3.746 0 0 1-1.493-.27 3.821 3.821 0 0 1-1.275-.843 3.938 3.938 0 0 1-.836-1.282 3.795 3.795 0 0 1-.274-1.51c0-1.036.411-2.03 1.137-2.762a3.86 3.86 0 0 1 5.482 0 3.927 3.927 0 0 1 1.138 2.762 3.801 3.801 0 0 1-.261 1.51c-.192.48-.479.916-.836 1.282a3.778 3.778 0 0 1-2.782 1.112zm14.801 1.934h-2.659L112.799 6.3h3.549l2.892 7.667 2.85-7.667h2.96l2.81 7.667 2.919-7.667h3.563l-5.29 13.416h-2.645l-2.837-7.639-2.836 7.64zm12.69-3.086c.274-.183.589-.281.918-.281.439 0 .863.176 1.179.49.301.314.479.74.479 1.183 0 .331-.096.655-.274.93-.192.275-.452.49-.754.616-.301.127-.63.16-.959.095a1.68 1.68 0 0 1-.849-.457 1.675 1.675 0 0 1 .26-2.575zm.918-.053c.288 0 .562.084.795.242.233.159.425.384.521.647.11.264.137.554.082.834a1.49 1.49 0 0 1-.384.738 1.429 1.429 0 0 1-2.206-.218 1.475 1.475 0 0 1 .178-1.82 1.44 1.44 0 0 1 1.014-.423zm-.26 1.623h.301l.329.57h.274l-.356-.605a.49.49 0 0 0 .233-.179.622.622 0 0 0 .082-.273.456.456 0 0 0-.041-.191.655.655 0 0 0-.109-.163.402.402 0 0 0-.165-.108.467.467 0 0 0-.192-.038h-.616v1.555h.26V18.2zm.356-.23h-.357v-.522h.357c.082 0 .137.027.192.076a.293.293 0 0 1 .068.185c0 .07-.027.136-.068.185a.267.267 0 0 1-.192.077z" fill="#DFE1EF"/></svg>