<svg width="71" height="46" viewBox="0 0 71 46" fill="none" xmlns="http://www.w3.org/2000/svg"><path fill-rule="evenodd" clip-rule="evenodd" d="M28 0c-2.972.995-5.811 2.597-7.985 5L20 0h8z" fill="#DFE1EF"/><path fill-rule="evenodd" clip-rule="evenodd" d="M51 1.908c-1.905-.43-3.575.37-5.093 1.204-3.216-2.635-8.35-1.454-11.842-.226-1.947.763-4.693 2.218-4.638 4.65 0 .823.593 1.551 1.325 1.945.552.322 1.187.453 1.725.775.07.047.083.13.042.202-.345.31-.815.37-1.27.466-1.988.346-3.865.965-5.645 1.752A18.21 18.21 0 0 0 23.16 14c-1.118-.656-2.195-1.443-3.161-2.433V6.344c1.753-2.552 4.458-4.46 7.205-5.533L29.248 0H51v1.908z" fill="#DFE1EF"/><path fill-rule="evenodd" clip-rule="evenodd" d="M45 3.309c-4.994 2.873-7.926 7.867-10.212 12.467-3.592.406-7.52.308-10.788-.691 2.118-2.306 4.952-3.058 7.744-3.872.294-.123.757-.308.757-.703-.028-.431-.561-.629-.828-.962-.687-.678-.8-1.788-.505-2.688.898-2.663 3.872-3.872 6.397-4.5 2.399-.592 5.471-.568 7.435.949zm6-1.202v5.164c-3.644 4.086-8.118 6.44-13 7.729 2.094-3.926 4.406-7.79 7.996-11.09.584.712.775 1.78.462 2.687-.231.81-.816 1.73-1.7 1.987-.326.074-.734-.012-.897.344a.435.435 0 0 0 0 .368c.109.208.313.257.544.257 1.414-.135 2.298-1.643 2.679-2.81.38-1.164 0-2.403-.544-3.372 1.278-.908 2.76-1.657 4.46-1.264z" fill="#DFE1EF"/><path fill-rule="evenodd" clip-rule="evenodd" d="M51 23.418c-2.732 1.901-5.977 3.03-9.548 2.412a25.534 25.534 0 0 1-3.178-.772c1.867-1.676 3.625-3.543 3.638-6.062-.095-.785-.19-1.652-.906-2.116-.135-.035-.311-.047-.42.012a.475.475 0 0 0-.243.38c.04.357.433.571.609.88.473.808.216 1.95-.108 2.746-.636 1.497-1.961 2.793-3.246 3.946A25.97 25.97 0 0 1 33 22.3c2.245-1.854 3.814-4.172 5.112-6.501C42.926 14.8 47.294 12.685 51 9v14.418zm-28-8.726c-1.11.668-2.178 1.483-2.986 2.308L20 13c.966.627 1.933 1.222 3 1.692z" fill="#DFE1EF"/><path fill-rule="evenodd" clip-rule="evenodd" d="M36.004 14.836c-1.01 2.042-2.077 4.06-3.866 5.815-1.645-.931-3.333-2.066-5.469-1.66-.606.143-1.255.538-1.5 1.11-.246.49-.16 1.17.216 1.576.808.789 1.905.98 3.059 1.004 1.457 0 2.698-.478 3.838-1.17 1.544.955 3.102 1.898 4.718 2.71-2.684 1.29-5.8 2.113-9.119 1.648-2.453-.335-5.194-2.054-5.714-4.394-.663-2.866.736-5.361 2.612-7.475 3.376 1.087 7.46 1.218 11.225.836z" fill="#DFE1EF"/><path fill-rule="evenodd" clip-rule="evenodd" d="M31 21.82c-1.443 1.164-3.796 1.647-5.456.61a1.34 1.34 0 0 1-.505-1.405c.202-.68.895-.95 1.487-1.021 1.775-.072 3.088.95 4.474 1.816zm-.87 5.542c2.389-.203 4.514-.931 6.53-1.906 2.829 1.296 6.404 2.27 9.744 1.285 1.684-.471 3.202-1.285 4.596-2.366V29H20v-5c2.733 2.484 6.128 3.694 10.13 3.362zM17 37.346h4v-.692h-4v.692zm-7.295 1.641l.084.228-.36.182c-.145-.432-.554-.887-.987-.956-.493-.09-.962.058-1.263.467-.205.295-.229.784-.036 1.091.854 1.25 3.08 1.443 2.839 3.41-.072.648-.65 1.25-1.227 1.443-.674.261-1.552.182-2.117-.284A2.187 2.187 0 0 1 6 43.613c.144-.045.277-.09.421-.125.156.42.53.898.974 1 .626.171 1.288.023 1.697-.511.216-.318.216-.807.048-1.16-.698-1.238-2.25-1.25-2.84-2.59a1.741 1.741 0 0 1 .41-1.683c.541-.523 1.383-.682 2.081-.42.373.136.734.488.914.863zM3 38.452H.768l-.012 2.555 1.956.012v.44H.768v3.09H3V45H0v-7h3v.452zm12 0h-1.622V45h-.756v-6.537L11 38.452V38h4v.452zm6 0h-2.217l-.012 2.555 1.94.012v.44h-1.928v3.09H21V45h-3v-7h3v.452zm6 0h-2.22v2.555l1.92.012v.44h-1.92v3.09h2.196V45H24v-7h3v.452zm6.771 6.085l2.229.011V45h-3v-7h.771v6.537zm12.296-.709c.101.602.419 1.18 1.068 1.516.634.324 1.658.29 2.264-.081.995-.59 1.082-1.551 1.024-2.547V39H51l-.014 4.85c-.072.869-.851 1.737-1.847 1.992-1.139.313-2.524.185-3.346-.59-.562-.51-.779-1.135-.793-1.842V39h1.053l.014 4.828zM64 38.452h-2.22v2.555l1.92.012v.44h-1.92v3.09H64V45h-3v-7h3v.452zm-7.036 5.416c-.764.724-1.86.7-2.97.676v-6.083c1.457-.095 2.942.13 3.562 1.4.562 1.257.475 2.988-.592 4.008zm-.172-5.585c-1.096-.462-2.523-.202-3.792-.273v6.985c1.355-.06 2.84.19 3.95-.38 1.283-.592 2.047-1.826 2.047-3.118.058-1.376-.807-2.716-2.205-3.214zM67.84 41.24v-2.774c.794 0 1.67-.06 2.055.76.18.378.168.912-.012 1.268-.42.782-1.25.782-2.042.747zm1.647.274l-.012-.06c.42-.118.852-.367 1.117-.818.288-.534.264-1.352-.096-1.85-.83-1.061-2.247-.723-3.496-.77V45h.84v-3.368h.818l.024.024L70.147 45l.853-.012-1.513-3.474zM39.3 41.452l.997-2.07.94 2.07H39.3zM40.76 38h-.393L37 45l.645-.012 1.445-3.059h2.357l.028.023c.463 1.013.884 2.036 1.36 3.036H44L40.76 38z" fill="#DFE1EF"/></svg>