<svg width="137" height="18" viewBox="0 0 137 18" fill="none" xmlns="http://www.w3.org/2000/svg"><path fill-rule="evenodd" clip-rule="evenodd" d="M0 18h3.898V6.659c0-.515-.048-1.714-.193-3.625.218 1.2.504 2.192.698 2.988L7.31 17.999h3.995l2.98-12.174c.207-.85.505-1.764.721-2.792a36.428 36.428 0 0 0-.193 3.551V18H19V1.001h-6.689L10.03 11.117c-.153.671-.386 1.69-.507 3.11-.071-1.248-.23-2.257-.456-3.013L6.01 1H0v17zM31.876.648C30.587.216 29.398 0 28.309 0 23.725 0 21 2.518 21 6.522 21 10.382 23.824 13 27.962 13c1.56 0 2.923-.192 4.038-.58l-.098-3.237a5.11 5.11 0 0 1-2.652.72c-2.304 0-3.742-1.366-3.742-3.406 0-2.086 1.363-3.428 3.544-3.428.817 0 1.66.215 2.526.67l.298-3.091zM35 1v17h4.676v-7.887L45.186 18H51l-7.102-9.186L50.342 1H45.11l-5.434 7.349V1H35zm17 0v17h12v-3.283h-7.496v-3.87h6.814V7.614h-6.814V4.185h7.228V1H52zm28.139.584C78.619 1.187 77.022 1 75.323 1 70.56 1 68 2.847 68 6.073c0 2.408 1.494 3.694 4.663 4.745 2.155.725 3.523.935 3.523 2.151 0 1.076-1.116 1.777-2.991 1.777-1.318 0-2.89-.327-4.613-1.052l-.406 3.624c1.825.471 3.6.682 5.297.682C78.415 18 81 16.032 81 12.502c0-1.52-.558-2.618-1.8-3.507-1.14-.794-2.787-1.215-4.79-1.823-1.089-.327-1.62-.84-1.62-1.52 0-.958 1.064-1.565 3.014-1.565 1.242 0 2.56.28 3.979.84l.356-3.343zm15.999 0C94.618 1.187 93.02 1 91.323 1 86.56 1 84 2.847 84 6.073c0 2.408 1.495 3.694 4.663 4.745 2.154.725 3.522.935 3.522 2.151 0 1.076-1.116 1.777-2.99 1.777-1.319 0-2.888-.327-4.612-1.052l-.406 3.624c1.825.471 3.598.682 5.296.682C94.413 18 97 16.032 97 12.502c0-1.52-.558-2.618-1.8-3.507-1.14-.794-2.788-1.215-4.789-1.823-1.09-.327-1.62-.84-1.62-1.52 0-.958 1.063-1.565 3.014-1.565 1.242 0 2.559.28 3.978.84l.355-3.343zM101 9.51c0-5.354 3.207-8.51 8.512-8.51C114.818 1 118 4.156 118 9.51c0 5.353-3.182 8.49-8.488 8.49-5.33 0-8.512-3.136-8.512-8.49zm12.411-.047c0-3.32-1.628-5.307-3.899-5.307-2.269 0-3.923 1.964-3.923 5.307 0 3.343 1.628 5.33 3.923 5.33s3.899-1.987 3.899-5.33zM121 1v17h4.201V9.035c0-1.25-.151-2.94-.478-5.047.327 1.299.729 2.45 1.234 3.454l5.258 10.557H137V1h-4.201v9.627c0 1.2.151 2.621.428 4.238-.554-1.763-1.006-2.988-1.359-3.674L126.811 1H121z" fill="#DFE1EF"/></svg>