<svg width="122" height="17" viewBox="0 0 122 17" fill="none" xmlns="http://www.w3.org/2000/svg"><path fill-rule="evenodd" clip-rule="evenodd" d="M66.896 7.894s-1.185-.699-1.92-.97c0 0-2.274-1.001-2.724-1.478 0 0-.885-.794-.367-1.717 0 0 .218-.603 1.157-.603 0 0 1.212.064 1.212 1.017v1.344h4.37v-1.98S68.953.266 63.479.123c0 0-4.316-.27-5.542 1.94 0 0-.49.492-.49 2.208v1.24s-.054 1.43.722 2.351c0 0 .435.605 1.498 1.271 0 0 2.178 1.112 3.472 1.75 0 0 1.32.714 1.143 1.85 0 0-.109 1.168-1.375 1.12 0 0-1.157-.049-1.157-1.194v-1.343h-4.657v1.951S56.956 17 62.933 17c0 0 5.72.11 5.978-3.83v-1.59s.204-2.415-2.015-3.686zM44.552.587l-1.47 8.718h-.341L41.35.665h-7.297l-.368 15.788h4.316l.055-11.895h.34l2.288 11.894h4.547l2.26-11.889h.3l.11 11.89h4.33L51.767.589 44.552.587zM18.844.653l-2.873 15.781h4.657L22.33 4.2h.381l1.702 12.236h4.643L26.183.653h-7.339zm97.532 7.023v2.328h1.199v2.499c0 1.222-1.103 1.244-1.103 1.244-1.335 0-1.28-1.16-1.28-1.16V3.942c0-.89 1.184-.939 1.184-.939 1.131 0 1.144 1.062 1.144 1.062V5.38h4.371c.15-2.566-.395-3.187-.395-3.187C120.42-.127 116.308 0 116.308 0c-6.317 0-5.609 4.608-5.609 4.608v8.358c.136 4.322 6.358 3.883 6.454 3.88 2.764-.292 3.608-1.128 3.608-1.128a2.607 2.607 0 0 0 .967-1.297c.217-.438.272-1.835.272-1.835v-4.91h-5.624zm-14.501 2.569h-.19L97.245.591h-5.323v15.863h4.33l-.259-9.651h.19l4.603 9.651h5.16V.59h-4.384l.313 9.655zM81.37 12.502s.067 1.302-1.199 1.302c0 0-1.334.068-1.334-1.27L78.823.601h-4.752V12.44s-.477 4.48 6.168 4.48c0 0 5.773.065 5.773-4.275V.601H81.37v11.9zM9.803 7.893s-1.184-.698-1.92-.968c0 0-2.273-1-2.723-1.479 0 0-.885-.795-.367-1.715 0 0 .217-.603 1.157-.603 0 0 1.212.063 1.212 1.015v1.344h4.37l-.013-1.98S11.859.265 6.386.123c0 0-.409-.025-1.022.003 0 0-3.322.17-4.506 1.901 0 .013-.014.023-.014.035 0 0-.49.492-.49 2.208v1.24s-.055 1.43.721 2.352c0 0 .436.604 1.498 1.27 0 0 2.165 1.113 3.472 1.75 0 0 1.321.713 1.144 1.851 0 0-.109 1.167-1.375 1.12 0 0-1.158-.05-1.158-1.194v-1.344H0v1.952s-.136 3.731 5.841 3.731c0 0 5.719.11 5.991-3.83v-1.587s.19-2.416-2.029-3.688z" fill="#DFE1EF"/></svg>