<svg width="136" height="31" viewBox="0 0 136 31" fill="none" xmlns="http://www.w3.org/2000/svg"><path fill-rule="evenodd" clip-rule="evenodd" d="M109 6.782v2.714h-4.134V23h-2.82V9.496H100V6.782h2.046v.037c0-2.927 1.203-5.137 2.986-6.051C106.871-.172 109 .015 109 .015V2.76c-.318 0-1.147-.135-2.24.38-1.175.546-1.825 1.758-1.894 3.498v.144H109zM59 9.235V6.51h-4.134V0h-2.834v6.51H50v2.725h2.032v7.002c0 2.938 1.217 5.112 3 6.03 1.853.943 3.968.707 3.968.707v-2.745c-.318 0-1.148.135-2.24-.38-1.175-.55-1.825-1.864-1.894-3.611V9.235H59zm10 0V6.51h-4.134V0h-2.82v6.51H60v2.725h2.046v7.002c0 2.938 1.203 5.112 2.986 6.03 1.853.943 3.968.707 3.968.707v-2.745c-.318 0-1.147.135-2.24-.38-1.175-.55-1.825-1.864-1.894-3.611V9.235H69zm-24.875 7.536c0 2.71-1.36 4.352-3.625 4.393-2.266-.04-3.625-1.683-3.625-4.393V7H34v9.895C34 21.318 36.422 24 40.5 24c4.078 0 6.5-2.682 6.5-7.105V7h-2.875v9.771zM113 23h3V0h-3v23zM8.203 24C4.129 24 .717 21.765 0 19.833l2.085-1.872c.96 1.443 2.829 3.278 6.077 3.278 3.181 0 5.063-1.318 5.063-3.771 0-2.649-2.355-3.517-5.726-4.348C4.02 12.268.582 11.126.582 6.496.582 2.793 3.831 0 8.122 0c3.722 0 6.443 1.775 7.282 3.298L13.36 5.124c-1.177-1.51-3.154-2.355-5.198-2.355-2.896 0-4.832 1.378-4.832 3.656 0 2.717 2.071 3.278 5.293 4.07 3.803.923 7.377 2.357 7.377 6.87C16 21.395 12.94 24 8.203 24zM97.13 7c-1.993 0-3.438.678-4.374 1.953V7.154H90V24h2.756v-9.92c0-2.716 2.234-4.19 4.374-4.23.308.006.59.044.87.107V7.052A8.094 8.094 0 0 0 97.13 7zm-12.914 7.386c-.29-2.48-1.427-4.9-4.681-4.9-2.604 0-4.363 1.908-4.765 4.9h9.446zM79.922 24C75.213 24 72 20.346 72 15.5S75.089 7 79.604 7C84.216 7 87 10.466 87 15.623c0 .22 0 .472-.041.847l-.014.144H74.77c.388 3 2.258 4.858 5.208 4.858 1.953 0 3.213-.555 4.681-2.061l.097-.11 1.745 1.534-.11.117C84.479 23.06 82.692 24 79.922 24zM24.77 6.386c-1.942 0-3.26.767-3.912 1.464V0H18v23h2.858v-9.62c0-2.65 1.707-4.256 3.912-4.295 2.234.04 3.4 1.958 3.4 4.607V23H31v-9.308c0-5.19-2.789-7.306-6.23-7.306zM129.143 7v9.57c0 2.634-1.712 4.23-3.919 4.27-2.221-.04-3.395-1.947-3.395-4.58V7H119v9.26c0 5.16 2.787 7.262 6.224 7.262 1.938 0 3.268-.762 3.919-1.455v2.33c-.071 1.753-.694 2.892-1.882 3.443-1.103.516-1.938.38-2.249.38v2.754s2.136.237 3.975-.71c1.796-.92 3.013-3.1 3.013-6.048V7h-2.857zm5.35 15.746c-.686 0-1.224-.544-1.224-1.246 0-.699.538-1.246 1.238-1.246a1.23 1.23 0 0 1 1.237 1.246c0 .699-.551 1.246-1.251 1.246zm.014-2.746c-.834 0-1.507.672-1.507 1.508 0 .823.673 1.492 1.493 1.492.834 0 1.507-.673 1.507-1.508 0-.823-.673-1.492-1.493-1.492zm.081 1.44h-.377v-.478h.377c.174 0 .295.083.295.235v.008c0 .144-.121.236-.295.236zm.591-.252v-.007a.47.47 0 0 0-.121-.315c-.107-.104-.269-.164-.471-.164h-.672v1.512h.296v-.523h.309l.363.523h.35l-.403-.57c.201-.06.349-.211.349-.456z" fill="#DFE1EF"/></svg>