<svg width="220" height="249" viewBox="0 0 220 249" fill="none" xmlns="http://www.w3.org/2000/svg"><path fill-rule="evenodd" clip-rule="evenodd" d="M203.117 183.706c-4.652 0-8.441-3.798-8.441-8.466 0-4.667 3.789-8.465 8.441-8.465 4.653 0 8.439 3.798 8.439 8.465 0 4.668-3.786 8.466-8.439 8.466zm-88.893 31.981V171.61h-8.446v44.077a16.865 16.865 0 0 0-8.492 5.27l-64.245-40.811c.47-1.554.73-3.199.73-4.906 0-2.661-.634-5.172-1.73-7.416l21.202-15.526-4.979-6.841-21.724 15.909a16.806 16.806 0 0 0-4.887-2.362V91.3a16.796 16.796 0 0 0 5.779-3.033l20.83 15.259 4.978-6.843L32.5 81.49a16.878 16.878 0 0 0 .541-11.334L98.035 28.87a16.874 16.874 0 0 0 7.743 4.442v44.08h8.446v-44.08a16.88 16.88 0 0 0 7.744-4.442l64.991 41.286a16.903 16.903 0 0 0 .549 11.348l-20.724 15.178 4.978 6.843 20.82-15.25a16.797 16.797 0 0 0 5.77 3.024v67.704a16.829 16.829 0 0 0-4.88 2.355l-21.71-15.902-4.978 6.841 21.182 15.516a16.819 16.819 0 0 0-1.005 12.332l-64.243 40.813a16.876 16.876 0 0 0-8.494-5.272zm-4.223 24.842c-4.655 0-8.441-3.796-8.441-8.465 0-4.666 3.786-8.464 8.441-8.464 4.653 0 8.439 3.798 8.439 8.464 0 4.669-3.786 8.465-8.439 8.465zm-93.116-56.823c-4.655 0-8.439-3.798-8.439-8.466 0-4.667 3.784-8.465 8.44-8.465 4.651 0 8.438 3.798 8.438 8.465 0 4.668-3.787 8.466-8.439 8.466zM8.446 75.062c0-4.666 3.784-8.465 8.44-8.465 4.651 0 8.438 3.799 8.438 8.465s-3.787 8.464-8.439 8.464c-4.655 0-8.439-3.798-8.439-8.464zm101.555-66.59c4.653 0 8.439 3.797 8.439 8.464 0 4.666-3.786 8.464-8.439 8.464-4.655 0-8.441-3.798-8.441-8.464 0-4.667 3.786-8.465 8.441-8.465zm93.116 58.125c4.653 0 8.439 3.799 8.439 8.465s-3.786 8.464-8.439 8.464c-4.652 0-8.441-3.798-8.441-8.464s3.789-8.465 8.441-8.465zm3.679 24.984c7.544-1.69 13.204-8.45 13.204-16.52 0-9.337-7.573-16.935-16.883-16.935-4.568 0-8.712 1.835-11.753 4.801l-65.132-41.376a16.87 16.87 0 0 0 .654-4.615c0-9.34-7.573-16.936-16.885-16.936-9.312 0-16.885 7.596-16.885 16.936 0 1.602.237 3.146.655 4.615L28.638 62.927c-3.043-2.966-7.185-4.8-11.753-4.8C7.573 58.126 0 65.723 0 75.061c0 8.07 5.66 14.828 13.206 16.52v67.14C5.66 160.413 0 167.17 0 175.24c0 9.339 7.573 16.935 16.885 16.935 4.568 0 8.712-1.835 11.753-4.801l64.845 41.193a17.005 17.005 0 0 0-.367 3.497c0 9.338 7.573 16.936 16.885 16.936 9.312 0 16.885-7.598 16.885-16.936 0-1.197-.129-2.366-.367-3.494l64.843-41.196c3.043 2.966 7.187 4.801 11.755 4.801 9.31 0 16.883-7.596 16.883-16.935 0-8.07-5.66-14.827-13.204-16.518v-67.14z" fill="#141414"/><path fill-rule="evenodd" clip-rule="evenodd" d="M56 108.654l.05 8.469 107.896-.652-.053-8.471L56 108.654zm18.465 20.121l.05 8.469 71.209-.431-.05-8.471-71.21.433zm20.117 20.112l.05 8.472 31.217-.19-.05-8.472-31.217.19z" fill="#141414"/></svg>