<svg width="121" height="28" viewBox="0 0 121 28" fill="none" xmlns="http://www.w3.org/2000/svg"><path fill-rule="evenodd" clip-rule="evenodd" d="M13.814 27.386c4.328.125 7.605-.883 10.886-2.63V11.779H14.54l-.365 4.534h5.412v5.527c-1.52.68-3.274 1.007-5.724.946-5.207-.136-8.537-3.863-8.472-9.27.067-4.992 3.09-8.622 8.108-8.855 3.075-.138 5.649.73 7.398 2.214l3.405-3.43C21.475.963 17.859-.058 13.818.004 5.845.128 0 5.458 0 13.8c0 8.38 5.79 13.34 13.814 13.585zm54.219-.763l.338-4.057a7.964 7.964 0 0 1-2.625.437c-1.73 0-2.192-.906-2.192-2.584v-7.355h4.479l.334-4.163h-4.813V3.873h-4.837V20.78c0 4.182 1.322 6.263 5.88 6.263 1.246 0 2.276-.111 3.436-.421zm18.836.108h-4.837v-9.426c0-1.974-.172-4.458-2.96-4.458-2.686 0-3.756 1.93-3.756 4.176v9.708H70.48V8.9h4.484l.102 2.279c.961-1.526 2.751-2.714 5.391-2.714 4.874 0 6.412 3.464 6.412 7.07V26.73zM120.377 8.9l-.35 4.164h-1.707c-2.727 0-4.144 2.176-4.144 4.262v9.404h-4.833V8.901h4.577l.104 2.225c.961-1.526 2.642-2.225 4.715-2.225h1.638zm-63.248 0l-.374 4.164H55.44c-2.721 0-4.075 2.173-4.075 4.262v9.404h-4.837V8.901h4.58l.095 2.225c.966-1.526 2.647-2.225 4.722-2.225h1.204zm50.054 10.61H93.921c.378 2.278 2.177 3.648 4.417 3.71 2.178.06 3.396-.596 4.989-2.202l3.156 2.396c-2.243 2.75-4.934 3.752-8 3.752-5.393 0-9.433-3.755-9.433-9.352 0-5.591 4.02-9.35 9.231-9.35 5.744 0 8.902 3.465 8.902 9.615v1.43zm-9.024-7.314c2.335-.091 4.029 1.333 4.178 3.585h-8.416c.324-1.974 1.888-3.497 4.238-3.585zm-54.676 2.858V26.73h-4.265l-.105-1.758c-1.309 1.613-3.433 2.194-5.62 2.194-3.293 0-6.405-1.617-6.47-5.383-.098-5.918 6.69-6.339 10.954-6.339h.852v-.234c0-1.957-1.3-3.014-3.75-3.014-1.758 0-3.494.702-4.777 1.9l-2.791-2.823c2.534-2.045 5.17-2.809 7.979-2.809 5.547 0 7.993 2.553 7.993 6.59zm-5.326 3.9h.672v.742c0 4.05-6.948 5.118-6.97 1.76-.015-2.385 4.008-2.497 6.298-2.502zm78.446 5.702c0-1.135.861-1.99 1.963-1.99 1.089 0 1.951.855 1.951 1.99 0 1.155-.862 2.007-1.951 2.007-1.102 0-1.963-.852-1.963-2.007zm4.397 0c0 1.39-1.12 2.406-2.434 2.406-1.325 0-2.446-1.015-2.446-2.406 0-1.377 1.121-2.39 2.446-2.39 1.314 0 2.434 1.013 2.434 2.39zm-2.944.192h.485l.732 1.198h.472l-.789-1.218c.408-.05.72-.267.72-.762 0-.545-.325-.787-.982-.787h-1.057v2.767h.419V24.85zm0-1.212v.855h.505c.356 0 .674-.025.674-.45 0-.342-.311-.405-.606-.405h-.573z" fill="#fff"/></svg>