<svg width="168" height="30" viewBox="0 0 168 30" fill="none" xmlns="http://www.w3.org/2000/svg"><path d="M62.964 0H34.352v5.777h28.612V0zm0 11.516H34.352v5.777h28.612v-5.777zm0 11.515H34.352v5.777h28.612v-5.777zM28.613 0h-5.738v28.809h5.738V0zM17.175 0h-5.738v28.809h5.738V0zM5.738 0H0v28.809h5.738V0zm75.737 0v12.98H78.95V4.544l-3.634 6.008h-.306l-3.634-6.008v8.396h-2.524V0h2.6l3.711 6.124L78.835 0h2.64zm2.103 0h2.525v12.98h-2.525V0zM97.08 0v2.426H93.6v10.515h-2.525V2.426h-3.442V0h9.448z" fill="#fff"/><path fill-rule="evenodd" clip-rule="evenodd" d="M103.047 8.435l2.601 4.506v.038h2.792l-2.869-4.891c1.492-.693 2.487-2.157 2.487-3.774 0-1.194-.421-2.196-1.263-3.043C105.992.424 104.959 0 103.773 0h-5.164v12.94h2.525V8.436h1.913zm-1.913-2.196V2.388h2.601c.956 0 1.76.886 1.76 1.926s-.804 1.925-1.76 1.925h-2.601z" fill="#fff"/><path d="M112.462 10.514h5.432v2.427h-7.956V0h7.841v2.426h-5.317V5.2h4.858v2.388h-4.858v2.927zM71.415 26.343h5.432v2.427h-7.956V15.83h7.88v2.426h-5.317v2.773h4.858v2.426h-4.858v2.888h-.039zM86.257 15.83h2.524v12.978H86.87l-5.509-7.934v7.934h-2.524V15.83h1.912l5.509 7.895V15.83zm17.557 6.007v1.002c0 1.849-.574 3.35-1.76 4.506-1.185 1.155-2.716 1.733-4.552 1.733-1.989 0-3.633-.655-4.934-1.926-1.3-1.31-1.95-2.927-1.95-4.775 0-1.887.65-3.467 1.912-4.814 1.3-1.31 2.907-1.965 4.82-1.965 2.41 0 4.513 1.194 5.622 3.004l-2.18 1.271c-.612-1.04-1.913-1.81-3.442-1.81-1.225 0-2.257.424-3.022 1.233-.804.808-1.186 1.81-1.186 3.042 0 1.233.42 2.234 1.186 3.043.803.808 1.874 1.194 3.213 1.194 1.95 0 3.289-.925 3.748-2.465h-3.901v-2.273h6.426zm4.281 4.506h5.432v2.427h-7.957V15.83h7.88v2.426h-5.317v2.773h4.858v2.426h-4.858v2.888h-.038zm14.88-10.513h2.525v12.978h-1.912l-5.509-7.934v7.934h-2.524V15.83h1.912l5.508 7.895V15.83zm6.316 12.016c-.918-.81-1.377-1.926-1.377-3.274v-8.743h2.525v8.512c0 1.348.764 2.195 2.41 2.195 1.645 0 2.41-.847 2.41-2.195v-8.512h2.524v8.743c0 1.386-.458 2.465-1.377 3.274-.918.808-2.104 1.232-3.557 1.232-1.492-.038-2.64-.424-3.558-1.232zm10.443-12.016h2.525v12.978h-2.525V15.83zm13.541 0v2.426h-3.481V28.77h-2.562V18.294h-3.443v-2.426h9.486v-.039zm11.97 0l-4.399 7.894v5.046h-2.525v-5.046l-4.399-7.895h2.868l2.793 5.392 2.793-5.392h2.869zm.119 10.706v.27h-.65v2.002h-.306v-2.002h-.65v-.27h1.606zm2.638 0v2.272h-.306v-1.771l-.727 1.232h-.038l-.726-1.232v1.771h-.307v-2.272h.344l.727 1.194.688-1.194h.345z" fill="#fff"/></svg>