<svg width="134" height="33" viewBox="0 0 134 33" fill="none" xmlns="http://www.w3.org/2000/svg"><path fill-rule="evenodd" clip-rule="evenodd" d="M76.03 10.81c1.766-.845 3.468-1.41 5.587-1.41 5.354 0 9.342 4.514 9.342 10.787 0 7.836-4.918 12.785-13.084 12.785-3.011 0-6.006-.462-8.782-1.077.277-3.09.327-22.405 0-26.008-.17-1.886-.72-2.707-2.159-2.9l-1.009-.126v-.912L76.226 0c-.12 1.613-.183 5.897-.196 10.81zm.249 20.405c.42.077 1.166.167 1.755.167 3.349 0 5.69-4.667 5.69-10.81 0-4.837-1.908-8.658-5.283-8.658-.826 0-1.466.076-2.409.382-.013 7.813.09 16.75.247 18.92zM27.22 9.642l-1.61.436c-1.403-4.59-3.638-7.181-7.8-7.181h-5.34c-.246 2.923-.34 7.796-.313 12.865l3.598-.116c2.396-.077 3.388-1.823 3.965-4.4h1.349v10.736h-1.35c-.576-2.578-1.582-4.31-3.964-4.4l-3.585-.117c.04 3.849.144 7.132.313 9.08.25 2.861 1.033 4.119 3.102 4.415l1.833.193v1.28H0v-1.28l1.44-.193c2.068-.296 2.851-1.554 3.101-4.414.393-4.707.456-14.506 0-19.967-.25-2.86-1.033-4.118-3.102-4.414L0 1.972V.692h27.076l.143 8.95z" fill="#fff"/><path fill-rule="evenodd" clip-rule="evenodd" d="M47.399 20.995c0-6.735-3.822-11.85-11.518-11.85-7.706 0-12.027 5.398-12.027 11.977 0 6.735 3.835 11.851 11.531 11.851 7.693 0 12.014-5.398 12.014-11.978zm-16.283.062c0-5.937.956-10.454 4.358-10.454 3.155 0 4.66 4.67 4.66 10.454 0 5.938-.956 10.455-4.357 10.455-3.155 0-4.661-4.67-4.661-10.455zM104.794 9.17c-7.93 0-11.96 5.86-11.947 12.107.013 6.885 4.907 11.708 11.857 11.721 4.421 0 7.759-2.065 9.355-4.234l-.68-.795c-1.466 1.091-2.775 1.683-5.194 1.683-5.497 0-8.375-4.094-8.219-9.659h14.396c-.026-6.13-3.115-10.823-9.568-10.823zm2.447 9.081l-7.223.153c.063-3.529 1.529-7.76 4.148-7.76 2.602 0 3.112 4.477 3.075 7.607zm25.623-2.078l-1.179.306c-1.256-3.988-3.169-5.681-5.954-5.681-1.859 0-3.205 1.373-3.205 3.363 0 1.972 1.503 3.013 5.86 4.666 4.018 1.527 5.614 3.283 5.614 6.476 0 4.773-3.728 7.697-9.852 7.697-2.945 0-6.216-.642-8.129-1.397l-.206-6.593 1.176-.309c1.689 4.617 3.888 6.297 6.78 6.297 2.458 0 3.834-1.717 3.834-3.553 0-1.783-1.036-2.847-4.96-4.23-3.652-1.285-6.294-2.848-6.294-6.85 0-3.888 3.505-7.207 9.302-7.207 2.695 0 5.247.462 6.963 1.23l.25 5.785zm-67.889-.181c-3.116-2.052-6.48-1.154-7.173-.04-.234 3.696-.184 9.35.08 12.198.17 1.886.72 2.707 2.158 2.9l1.86.127v1.284H47.606v-1.284l1.01-.127c1.439-.193 1.988-1.014 2.158-2.9.273-3.09.327-9.53 0-13.132-.17-1.886-.72-2.708-2.159-2.9l-1.01-.127v-.911l10.262-1.95-.116 5.26c2.392-5.412 7.13-6.118 9.735-4.604l-2.512 6.207z" fill="#fff"/></svg>