<svg width="205" height="50" viewBox="0 0 205 50" fill="none" xmlns="http://www.w3.org/2000/svg"><path fill-rule="evenodd" clip-rule="evenodd" d="M68.08 23.687c-4.29-.873-5.076-1.79-5.076-3.286v-.054c0-1.567 1.58-2.662 3.843-2.662 2.013 0 3.755.624 5.485 1.962l.29.224 1.762-2.218-.3-.229c-2.192-1.67-4.34-2.383-7.18-2.383-3.984 0-6.875 2.311-6.875 5.494v.054c0 3.61 2.775 4.921 6.944 5.78 4.098.82 4.848 1.724 4.848 3.206v.053c0 1.662-1.662 2.823-4.04 2.823-2.524 0-4.42-.744-6.546-2.566l-.276-.238-1.88 2.111.29.245c2.49 2.11 5.136 3.092 8.326 3.092 4.198 0 7.13-2.336 7.13-5.681v-.053c0-3-2.017-4.698-6.745-5.674zm24.686.75l-6.42-9.045h-3.595l8.5 11.737v7.616h2.972v-7.643l8.501-11.71H99.24l-6.474 9.045zm27.045 2.253h5.983v4.092c-1.442 1.056-3.411 1.683-5.306 1.683-4.434 0-7.412-2.972-7.412-7.396v-.055c0-4.087 3.12-7.29 7.103-7.29 2.872 0 4.46.986 5.748 2.051l.273.226 1.926-2.155-.303-.242c-2.272-1.82-4.462-2.563-7.559-2.563-5.735 0-10.227 4.405-10.227 10.028v.052c0 5.873 4.263 9.974 10.367 9.974a12.56 12.56 0 0 0 8.129-2.942l.131-.11V24.06h-8.853v2.63zm34.669 1.718L140.025 15v19.769h2.896V21.715l14.455 13.422v-19.77h-2.896v13.04zm15.779 6.337h2.946V15.39h-2.946v19.354zm28.083-7.518h-7.722l3.874-8.187 3.848 8.187zm-2.561-11.836h-2.518l-9.218 19.355h3.06l2.309-4.889h10.132l2.281 4.889h3.172l-9.218-19.355z" fill="#fff"/><path fill-rule="evenodd" clip-rule="evenodd" d="M18.479 23.465l9.677-9.696 1.932 1.936V6.654l-16.78 16.81h5.17zm13.157-.005l3.088-3.094 1.931 1.936V13.25l-10.19 10.21h5.17zM3.707 32.218H36.5v2.797l6.5-6.512H0l3.707 3.715zm1.706-8.765L21.605 7.23l1.975 1.98V0L.17 23.453h5.243zM21.534 50l5.163-5.173H16.301L21.534 50zm-9.768-9.725h16.647v2.797l6.5-6.512H8.06l3.706 3.715z" fill="#A89564"/></svg>