<svg width="24" height="18" viewBox="0 0 24 18" fill="none" xmlns="http://www.w3.org/2000/svg"><path fill-rule="evenodd" clip-rule="evenodd" d="M12.211.382h-.134v.001h-.289C10.359.388 8.931.414 7.503.46l-.256.011-.129.005-.258.009-.255.01C4.94.571 3.354.692 2.624.89A3.024 3.024 0 0 0 .501 3.036C.35 3.61.243 4.372.171 5.157l-.015.157-.033.394-.012.157-.004.079-.011.155A49.807 49.807 0 0 0 0 8.79v.186a47.95 47.95 0 0 0 .123 3.08l.012.157.012.159c.075.865.186 1.726.353 2.356a3.023 3.023 0 0 0 2.122 2.147c.731.2 2.316.319 3.981.393l.257.01.256.011.131.006.255.01c2.01.069 3.927.078 4.391.078h.213c.916-.002 7.53-.035 9.27-.507a3.024 3.024 0 0 0 2.123-2.148c.166-.632.277-1.491.352-2.356l.014-.158.012-.158c.108-1.44.122-2.823.123-3.116v-.114a49.291 49.291 0 0 0-.111-2.96l-.012-.157-.033-.394-.015-.157c-.072-.785-.179-1.546-.33-2.12a3.028 3.028 0 0 0-2.123-2.15C19.692.432 13.444.386 12.211.382zm-2.211 12v-7l6 3.501-6 3.499z" fill="#fff"/></svg>