<svg width="22" height="22" viewBox="0 0 22 22" fill="none" xmlns="http://www.w3.org/2000/svg"><path fill-rule="evenodd" clip-rule="evenodd" d="M8.172 7.666h4.086V9.7c.588-1.17 2.097-2.222 4.364-2.222 4.346 0 5.378 2.33 5.378 6.604V22h-4.4v-6.943c0-2.434-.588-3.807-2.086-3.807-2.078 0-2.942 1.48-2.942 3.806V22h-4.4V7.666zM.627 21.813h4.4V7.479h-4.4v14.334zm5.03-19.008c0 .745-.298 1.459-.828 1.982a2.85 2.85 0 0 1-4.002.001A2.788 2.788 0 0 1 .828.821a2.845 2.845 0 0 1 4 0c.53.526.83 1.24.83 1.984z" fill="#fff"/></svg>